<?xml version="1.0" encoding="UTF-8" standalone="no"?><!DOCTYPE svg PUBLIC "-//W3C//DTD SVG 1.1//EN" "http://www.w3.org/Graphics/SVG/1.1/DTD/svg11.dtd"><svg width="100%" height="100%" viewBox="0 0 6034 4525" version="1.1" xmlns="http://www.w3.org/2000/svg" xmlns:xlink="http://www.w3.org/1999/xlink" xml:space="preserve" xmlns:serif="http://www.serif.com/" style="fill-rule:evenodd;clip-rule:evenodd;stroke-linejoin:round;stroke-miterlimit:2;"><g id="Fundo"><path d="M3072.644,2556.317c-17.047,0.646 -23.062,-1.484 -23.42,15.511c-1.255,59.589 -0.307,406.542 -0.211,441.894c0.004,1.308 0.037,13.381 -1.957,16.238c-3.902,5.593 -5.728,3.37 -180.652,3.938c-8.521,0.028 -103.052,0.335 -106.508,-0.334c-11.5,-2.225 -9.381,-8.699 -9.762,-61.119c-0.62,-85.301 0.112,-867.26 0.183,-942.673c0.113,-120.381 -1.654,-122.183 5.375,-128.072c3.057,-2.561 134.054,-70.619 162.765,-85.981c56.896,-30.442 57.432,-29.109 114.136,-60.139c19.512,-10.678 16.574,4.583 16.769,26.723c0.266,30.22 -0.173,395.707 -0.215,430.116c-0.068,56.969 -3.542,68.199 11.793,69.831c5.49,0.584 379.352,-0.019 412.339,-0.072c26.118,-0.042 33.788,2.739 33.974,-16.775c0.137,-14.344 -0.654,-331.575 0.058,-447.807c0.092,-15.083 -0.975,-23.363 13.235,-17.944c4.291,1.636 183.786,104.878 187.696,107.472c18.936,12.563 109.977,60.197 113.633,69.144c4.141,10.134 0.523,408.39 1.627,460.047c0.138,6.473 0.52,289.221 -0.114,553.828c-0.077,32.017 3.812,43.231 -14.135,43.76c-5.649,0.167 -13.661,-0.235 -153.312,0.103c-133.417,0.323 -133.774,2.146 -142.154,-1.017c-6.908,-2.608 -6.681,-4.909 -6.81,-72.289c-0.305,-159.745 0.146,-352.361 0.217,-383.001c0.039,-16.466 0.216,-21.384 -16.276,-21.467c-209.215,-1.058 -209.044,0.685 -418.274,0.084Z" style="fill:#858582;"/><path d="M2061.477,2125.483c18.797,-4.22 32.527,-14.952 45.981,-22.829c32.34,-18.934 33.808,-22.128 69.265,-44.028c12.454,-7.692 11.563,-9.004 154.548,-97.961c29.35,-18.26 36.055,-15.413 37.087,-36.932c0.606,-12.637 -0.228,-526.743 0.457,-571.522c0.416,-27.168 -6.986,-26.866 -3.637,-47.219c3.356,-20.398 3.358,-25.485 23.969,-25.651c129.685,-1.045 129.508,0.485 259.239,-0.652c3.08,-0.027 26.312,1.431 32.631,-5.468c4.165,-4.548 3.272,-9.641 26.317,-8.867c16.586,0.557 13.959,6.673 23.059,12.043c12.042,7.106 17.188,5.82 17.241,28.661c0.617,267.06 -0.298,286.838 -0.001,341.747c0.225,41.517 0.178,41.425 0.292,41.591c6.022,8.706 8.255,3.53 16.796,-2.765c9.929,-7.318 10.128,-6.969 439.343,-277.671c45.512,-28.704 46.29,-28.746 50.975,-28.999c8.443,-0.456 7.807,2.277 61.09,41.413c29.864,21.935 167.079,127.832 225.661,170.294c6.277,4.55 39.422,30.704 42.833,33.396c5.251,4.143 5.734,3.334 66.88,50.172c92.175,70.607 93.193,69.016 185.48,139.67c71.833,54.995 268.629,203.811 342.103,264.468c5.681,4.69 50.466,41.662 72.286,57.038c1.729,1.218 18.976,13.372 19.394,17.971c0.098,1.081 1.14,12.549 -12.962,4.017c-23.756,-14.373 -23.175,-15.113 -47.031,-29.356c-466.913,-278.773 -717.669,-432.551 -806.805,-483.635c-4.035,-2.312 -35.655,-23.032 -54.521,-32.762c-20.088,-10.36 -83.625,-52.525 -94.136,-52.474c-10.535,0.051 -121.715,63.523 -171.076,87.249c-11.028,5.301 -55.795,31.583 -76.678,41.018c-17.711,8.002 -419.373,223.734 -758.506,409.56c-19.429,10.646 -230.993,126.571 -243.143,132.561c-10.966,5.406 -10.657,5.816 -134.598,72.377c-235.177,126.299 -249.743,135.053 -270.902,147.771c-17.731,10.657 -16.945,-0.171 -16.576,-1.45c2.505,-8.676 33.349,-24.019 56.165,-42.461c36.545,-29.54 117.362,-80.546 196.471,-132.677c96.378,-63.511 97.418,-61.55 193.806,-124.782c16.336,-10.717 17.705,-8.777 31.202,-22.857Z" style="fill:#042251;"/><path d="M2073.807,2665.48c12.28,36.454 27.969,88.893 120.841,107.222c4.812,0.95 73.121,12.316 123.086,-25.113c72.056,-53.978 63.605,-141.037 63.61,-211.11c0.033,-421.13 -1.882,-421.578 1.462,-430.332c2.611,-6.835 28.644,-17.174 52.74,-30.646c3.882,-2.171 125.504,-64.747 135.495,-70.727c6.52,-3.902 6.784,-3.267 84.063,-44.201c1.313,-0.695 14.389,-7.622 16.842,-7.816c8.22,-0.65 8.532,10.708 8.565,11.88c0.071,2.596 0.349,558.608 0.373,607.182c0.021,42.227 6.969,237.984 -143.613,366.266c-162.127,138.117 -434.885,123.275 -573.517,30.301c-53.849,-36.114 -107.172,-80.711 -145.091,-184.797c-20.584,-56.504 -29.931,-154.301 -19.621,-159.837c6.064,-3.256 6.466,-2.481 124.671,-2.553c17.712,-0.011 17.607,0 35.333,0.071c101.941,0.405 108.549,-3.408 110.185,9.812c1.56,12.607 0.874,12.521 4.575,34.399Z" style="fill:#032251;"/><path d="M3167.196,981.575c-213.186,82.815 -213.854,83.415 -216.765,88.702c-6.811,12.368 2.495,45.689 1.569,93.377c-1.334,68.696 5.944,330.383 1.307,341.006c-0.952,2.182 -0.008,3.869 -97.824,66.974c-54.418,35.108 -55.396,37.441 -59.971,34.178c-2.808,-2.003 -1.978,-2.842 -2.206,-171.125c-0.201,-148.296 1.936,-150.107 -4.372,-158.322c-1.433,-1.866 -12.364,-10.926 -16.76,-18.453c-4.378,-7.498 -4.073,-7.652 -10.798,-13.2c-9.591,-7.913 -4.18,-12.713 -3.141,-86.974c0.579,-41.369 4.057,-45.665 -13.902,-55.822c-39.763,-22.488 -44.203,-21.618 -44.723,-38.323c-0.586,-18.854 0.146,-18.718 -0.279,-235.791c-0.038,-19.252 1.586,-21.46 -8.029,-31.137c-7.27,-7.317 -10.471,-27.353 4.747,-31.659c39.971,-11.311 145.691,-3.869 157.386,-9.904c13.175,-6.799 17.869,-34.957 55.057,-55.32c4.983,-2.729 5.707,-1.285 63.189,-32.408c23.716,-12.841 26.727,-15.398 48.622,0.392c4.871,3.513 133.796,85.949 147.672,93.206c3.576,1.87 22.166,6.201 18.772,26.019c-0.754,4.405 -3.874,9.328 -4.343,10.069c-4.921,7.766 -4.193,8.415 -4.302,154.488c-0.014,18.646 2.18,21.055 -10.905,30.025Z" style="fill:#042251;"/><path d="M3932.284,1319.392c38.496,11.129 38.768,9.662 77.196,20.944c3.728,1.094 3.968,0.041 46.951,12.41c32.051,9.223 49.461,2.497 42.132,34.962c-2.518,11.155 -10.812,9.559 -10.931,29.316c-1.348,224.49 -7.179,465.513 -6.749,530.282c0.092,13.803 2.061,14.432 -0.896,17.537c-5.955,6.253 -24.419,-11.957 -36.593,-21.624c-97.462,-77.392 -269.957,-220.771 -350.641,-286.37c-54.705,-44.478 -54.806,-44.822 -56.511,-50.649c-3.714,-12.693 0.472,-191.632 -2.44,-201.488c-1.502,-5.083 -20.277,-23.297 5.471,-39.01c49.767,-30.372 49.365,-30.718 98.321,-62.093c39.791,-25.502 40.965,-26.906 54.129,-22.929c95.442,28.83 129.166,36.217 140.56,38.713Z" style="fill:#888886;"/><path d="M3537.851,898.518c-0.072,47.651 2.284,51.735 -12.025,57.492c-15.072,6.064 -28.991,3.771 -27.032,36.681c0.892,14.982 4.9,14.324 5.239,35.45c0.429,26.715 -0.489,402.18 0.17,459.706c0.134,11.649 -5.383,14.505 -13.621,6.258c-4.898,-4.903 -122.221,-98.074 -134.998,-106.738c-12.924,-8.763 -5.93,-13.153 -8.246,-241.312c-0.536,-52.753 7.253,-63.968 -5.845,-73.813c-0.44,-0.331 -57.728,-37.944 -67.829,-45.119c-49.48,-35.148 -56.099,-32.502 -57.126,-52.085c-1.827,-34.859 2.37,-166.922 -3.017,-176.422c-6.611,-11.659 -10.239,-11.212 -7.509,-24.394c2.056,-9.927 11.501,-12.327 39.052,-32.605c17.457,-12.849 78.005,-53.273 84.836,-57.834c34.011,-22.707 43.84,-38.37 60.644,-26.484c8.541,6.042 7.73,7.028 104.69,78.37c46.966,34.557 47.684,33.866 49.886,38.395c8.181,16.825 -6.538,20.676 -7.201,36.067c-0.304,7.064 0.059,7.02 -0.069,88.386Z" style="fill:#888885;"/><path d="M3901.314,1257.929c-0.091,14.951 1.66,15.565 -1.49,19.356c-5.226,6.292 -14.641,1.144 -31.279,-3.588c-54.115,-15.393 -55.1,-18.109 -56.766,-22.707c-2.731,-7.535 -0.328,-258.998 -1.356,-264.331c-1.833,-9.509 -23.51,-17.952 -23.519,6.121c-0.028,70.79 0.151,70.689 -0.514,141.42c-0.978,104.142 1.035,105.424 -3.341,109.243c-4.227,3.689 -9.145,-1.081 -25.346,10.769c-3.489,2.552 -91.984,65.265 -99.985,70.936c-50,35.434 -50.479,35.14 -52.896,39.856c-4.113,8.026 -1.447,8.541 -2.708,140.37c-0.633,66.19 3.616,71.604 -5.086,71.489c-4.29,-0.057 -30.929,-24.764 -47.242,-35.998c-13.051,-8.987 -10.998,-12.02 -11.034,-82.621c-0.22,-443.071 2.777,-444.461 -3.006,-452.068c-0.062,-0.081 -13.713,-9.088 -8.781,-24.925c2.922,-9.383 13.112,-9.591 81.509,-30.729c7.551,-2.334 7.902,-1.016 95.143,-26.623c5.154,-1.513 5.187,-1.073 64.68,-18.022c11.26,-3.208 21.255,-7.454 52.809,-2.687c12.689,1.917 35.026,22.39 42.865,28.288c42.828,32.223 43.326,33.495 45.042,37.879c6.099,15.584 -6.831,20.126 -7.495,35.109c-0.275,6.202 -0.173,217.522 -0.205,253.463Z" style="fill:#042251;"/><path d="M2986.716,1440.512c-0.635,-76.72 -2.436,-76.526 -3.35,-153.123c-0.676,-56.665 -0.231,-129.682 -1.019,-159.096c-0.413,-15.413 -7.393,-13.991 -7.666,-29.478c-0.316,-17.982 12.577,-19.665 26.829,-24.713c53.692,-19.015 52.881,-20.732 106.714,-39.43c81.108,-28.17 83.169,-28.344 88.791,-27.042c11.008,2.551 92.1,59.54 105.655,67.255c35.43,20.165 17.488,32.519 14.366,47.786c-2.805,13.718 -0.682,200.522 -0.483,217.958c0.013,1.113 0.175,15.388 -8.144,11.284c-3.821,-1.885 -6.637,-5.346 -9.89,-8.098c-35.718,-30.216 -39.386,-34.126 -56.001,-22.594c-23.299,16.17 -164.156,105.621 -242.069,158.05c-0.933,0.628 -11.334,7.627 -13.539,-3.772c-0.728,-3.762 0.172,-7.663 0.166,-11.494c0,0 -0.332,-21.616 -0.361,-23.496Z" style="fill:#898987;"/><path d="M2804.295,3314.204c-0.226,5.449 2.322,55.077 -34.457,104.244c-15.439,20.639 -55.787,47.117 -97.677,50.658c-9.408,0.795 -24.462,2.068 -118.001,1.817c-20.986,-0.056 -16.008,-11.511 -15.983,-44.76c0.173,-233.103 -0.216,-233.077 -0.082,-253.344c0.136,-20.518 9.434,-15.999 45.527,-16.132c55.456,-0.205 142.557,-10.07 192.111,59.078c14.895,20.784 20.345,41.221 21.373,45.077c6.982,26.181 6.293,26.23 7.188,53.363Z" style="fill:#052454;"/><path d="M1839.862,3284.475c-8.427,27.982 -14.556,40.04 -45.752,59.216c-12.428,7.639 -2.005,16.165 22.56,59.453c31.263,55.092 35.034,53.047 36.03,58.449c1.554,8.426 -9.929,8.722 -11.057,8.751c-63.501,1.637 -65.118,-0.713 -68.222,-5.221c-10.723,-15.576 -52.255,-98.015 -62.286,-102.759c-7.604,-3.596 -25.164,-3.34 -27.255,5.307c-1.63,6.741 1.756,91.596 -3.132,98.772c-3.427,5.031 -12.848,4.936 -51.546,4.359c-19.786,-0.295 -16.583,-10.444 -16.612,-38.749c-0.022,-21.201 -0.268,-260.132 0.216,-265.006c1.261,-12.703 7.105,-10.649 63.442,-10.399c47.445,0.21 184.62,-15.445 163.614,127.829Z" style="fill:#052351;"/><path d="M3105.51,3361.308c-0.101,-192.199 -0.204,-192.206 0.033,-194.746c1.147,-12.295 12.826,-10.289 20.112,-10.249c39.053,0.212 45.703,-1.175 52.079,5.575c3.212,3.401 79.054,121.837 86.096,133.058c22.956,36.574 21.729,37.163 23.738,40.321c0.599,0.941 11.465,12.533 10.687,-8.957c-0.146,-4.031 -0.51,-8.052 -0.645,-12.083c-0.578,-17.251 -0.403,-142.039 -0.045,-147.208c0.985,-14.236 22.487,-10.504 22.54,-10.504c30.884,-0.026 42.507,-1.199 45.73,5.201c1.578,3.133 1.377,3.399 1.807,252.652c0.086,49.912 0.813,55.093 -12.363,56.435c-0.394,0.04 -46.247,0.155 -46.881,0.117c-15.095,-0.889 -17.077,-10.745 -28.301,-27.812c-17.918,-27.245 -68.931,-108.019 -82.888,-129.428c-14.541,-22.305 -14.024,-25.601 -14.869,-26.928c-0.594,-0.933 -11.852,-11.138 -9.805,9.743c1.868,19.053 1.596,18.986 1.867,111.952c0.154,52.967 2.222,61.749 -13.491,62.306c-48.004,1.7 -49.885,-0.382 -52.719,-3.519c-3.007,-3.328 -2.735,-3.877 -2.68,-105.927Z" style="fill:#042251;"/><path d="M2388.466,1112.321c-5.681,-2.311 -67.232,-27.343 -70.977,-28.982c-14.691,-6.43 -11.962,-10.671 -12.315,-66.956c-0.289,-46.094 2.25,-48.497 -7.935,-55.975c-17.103,-12.558 14.371,-28.87 20.714,-33.172c94.472,-64.083 94.123,-66.069 100.789,-65.787c4.511,0.191 5.461,0.231 47.675,30.206c30.343,21.545 64.761,42.295 70.904,46.973c18.013,13.717 9.303,21.909 7.376,30.943c-0.978,4.583 -0.187,78.622 -0.211,93.935c-0.03,19.831 -6.184,17.709 -31.443,35.508c-14.344,10.107 -0.408,23.509 1.074,29.007c2.435,9.038 1.067,92.484 0.935,100.525c-0.248,15.132 -4.655,15.18 -19.85,14.56c-15.483,-0.632 -17.995,-2.971 -18.02,-20.527c-0.071,-49.267 3.661,-68.87 -6.157,-75.584c-2.213,-1.514 -70.109,-29.892 -82.559,-34.674Z" style="fill:#052250;"/><path d="M3858.621,3391.672c35.342,-98.689 34.947,-98.69 38.139,-107.215c17.67,-47.203 16.781,-47.396 33.823,-94.768c6.662,-18.519 5.668,-32.577 25.858,-32.997c54.232,-1.129 55.943,0.577 59.312,3.933c4.229,4.213 94.748,275.531 97.462,283.928c5.785,17.892 9.325,26.915 -9.517,26.173c-17.969,-0.708 -40.793,1.077 -47.806,-0.837c-9.994,-2.727 -13.054,-19.258 -21.036,-44.31c-4.922,-15.448 -9.854,-13.087 -60.732,-13.22c-45.158,-0.118 -49.504,-1.628 -54.522,13.323c-12.646,37.681 -13.154,45.032 -28.079,45.366c-53.755,1.204 -54.808,-0.469 -56.706,-4.606c-2.618,-5.705 -1.264,-6.29 23.803,-74.769Z" style="fill:#052351;"/><path d="M2984.232,3217.437c-20.751,0.032 -20.58,0.084 -41.225,-0.475c-16.944,-0.458 -23.048,-2.291 -23.319,14.765c-0.701,44.066 -0.812,48.314 11.137,49.827c9.927,1.257 87.802,-1.465 95.437,1.975c8.92,4.019 5.075,49.573 2.999,52.89c-7.153,11.428 -100.123,-1.557 -107.226,8.97c-2.685,3.979 -4.249,53.678 0.587,59.473c3.488,4.18 4.265,4.71 61.637,4.771c58.597,0.061 70.449,-3.622 71.637,10.542c0.549,6.547 0.262,32.627 0.231,35.464c-0.2,18.156 -8.452,15.206 -60.092,15.241c-33.388,0.031 -66.776,0.062 -100.164,0.093c-36.09,-0.042 -46.117,3.005 -46.473,-15.376c-1.015,-52.428 -0.398,-227.646 -0.329,-247.441c0.151,-42.982 -1.389,-50.962 11.608,-51.609c2,-0.1 175.134,-0.186 176.544,-0.14c16.106,0.529 14.246,6.223 14.333,22.271c0.148,27.437 3.488,37.578 -14.099,38.276c-17.887,0.71 -31.067,-0.405 -53.223,0.484Z" style="fill:#062351;"/><path d="M2029.746,3217.492c-56.116,0.175 -63.064,-1.403 -65.439,8.173c-0.551,2.22 -0.884,45.118 -0.343,47.515c2.392,10.597 14.533,8.822 54.006,8.828c46.017,0.007 57.557,-4.516 57.918,14.561c0.734,38.774 0.181,42.015 -10.271,44.03c-11.772,2.269 -92.7,-3.099 -99.183,4.333c-4.018,4.606 -4.964,56.779 0.188,61.743c8.679,8.361 121.224,-2.616 129.83,5.776c5.234,5.104 6.002,52.781 -0.96,56.203c-6.884,3.384 -11.4,2.083 -177.693,2.145c-1.793,0.001 -18.88,0.007 -21.962,-4.481c-4.254,-6.194 -1.331,-50.926 -2.507,-181.548c-0.029,-3.265 0.2,-114.684 0.671,-117.894c1.819,-12.4 7.03,-10.432 70.948,-10.373c53.05,0.049 52.906,0.042 106.067,-0.17c18.775,-0.075 24.84,-1.111 24.92,16.47c0.166,36.71 2.182,42.634 -12.943,44.09c-7.784,0.749 -24.999,-0.217 -53.249,0.601Z" style="fill:#062351;"/><path d="M3655.915,3443.802c-68.269,56.181 -185.442,40.833 -224.537,-46.772c-37.826,-84.762 -18.101,-231.384 118.681,-245.608c51.685,-5.375 113.673,24.786 130.291,68.177c6.67,17.415 -8.973,18.285 -23.623,25.515c-17.084,8.431 -29.72,16.804 -36.288,4.379c-32.507,-61.498 -141.273,-50.731 -130.113,82.451c7.529,89.861 90.22,107.78 131.173,47.664c9.89,-14.517 14.14,-8.376 40.696,4.644c18.25,8.948 25.164,13.915 21.038,23.329c-8.085,18.448 -24.653,33.758 -27.319,36.221Z" style="fill:#042250;"/><path d="M2350.172,3415.269c-3.344,7.533 -9.349,27.368 -38.421,44.819c-13.05,7.833 -110.52,47.991 -173.819,-35.473c-13.295,-17.531 -0.847,-18.965 26.739,-34.895c15.889,-9.176 19.785,-14.106 30.695,0.636c0.006,0.007 6.824,13.992 29.26,22.882c46.738,18.52 91.068,-32.215 29.764,-59.421c-57.534,-25.532 -121.957,-50.305 -113.827,-122.22c11.16,-98.721 157.241,-101.569 200.874,-34.858c11.496,17.576 -5.66,22.381 -23.861,33.514c-1.271,0.777 -13.589,8.312 -16.392,8.833c-17.768,3.305 -18.157,-31.717 -59.211,-29.316c-25.312,1.481 -60.238,34.813 12.409,67.514c64.075,28.843 118.093,53.44 95.789,137.983Z" style="fill:#052352;"/><path d="M4352.399,3414.76c-1.594,3.682 -15.976,59.41 -107.236,61.842c-63.259,1.686 -98.823,-44.227 -104.534,-51.6c-14.614,-18.867 2.192,-21.122 32.942,-41.53c20.047,-13.305 16.68,8.509 42.503,24.326c40.156,24.596 83.974,-4.589 68.088,-33.558c-19.513,-35.582 -131.614,-38.83 -141.359,-118.594c-13.621,-111.493 139.805,-138.286 198.43,-60.539c11.381,15.094 -5.211,19.118 -30.521,37.743c-12.06,8.875 -16.302,11.456 -23.632,-1.593c-19.941,-35.505 -82.385,-24.051 -72.331,12.532c8.814,32.069 111.27,47.095 133.654,95.371c17.361,37.442 7.68,60.617 3.995,75.599Z" style="fill:#052351;"/><path d="M3214.055,564.155c15.423,0.88 15.407,0.47 16.652,0.95c7.887,3.041 5.456,14.784 5.506,127.211c0.011,24.83 5.468,29.33 -15.237,42.894c-23.275,15.247 -25.878,21.007 -49.592,6.39c-15.603,-9.618 -75.69,-47.773 -76.05,-48.015c-40.776,-27.326 -41.556,-25.928 -82.482,-53.068c-18.525,-12.285 -28.757,-0.288 -70.708,20.201c-21.526,10.514 -16.498,-13.803 -16.503,-15.558c-0.056,-20.689 -0.789,-71.528 1.267,-75.832c4.033,-8.441 7.71,-4.295 287.147,-5.173Z" style="fill:#042250;"/><path d="M2643.233,1068.202c28.076,17.594 41.51,17.463 40.981,36.546c-1.371,49.498 0.873,128.763 -2.39,134.376c-2.777,4.776 -4.251,4.724 -92.323,4.716c-32.823,-0.003 -47.736,2.118 -49.598,-8.829c-2.356,-13.85 2.693,-95.892 -2.294,-107.283c-4.014,-9.168 -17.357,-14.814 5.021,-28.485c4.901,-2.994 3.516,-5 59.715,-39.839c15.927,-9.874 26.245,0.279 40.888,8.797Z" style="fill:#072451;"/><path d="M2472.904,3390.8c0.069,69.466 1.368,75.684 -6.213,78.414c-3.62,1.304 -4.047,1.458 -48.071,1.597c-21.281,0.067 -16.255,-9.885 -16.574,-50.567c-0.159,-20.254 -1.855,-236.196 0.103,-253.181c1.466,-12.718 12.387,-10.24 45.977,-10.592c18.285,-0.192 24.717,-1.866 24.702,16.341c0.026,72.663 0.052,145.325 0.077,217.988Z" style="fill:#062453;"/><path d="M3729.103,3208.212c0.097,-30.712 -0.496,-42.035 2.512,-47.917c1.967,-3.847 3.008,-4.507 53.892,-3.498c6.769,0.134 7.53,-0.957 11.965,4.135c1.279,1.468 2.137,1.568 2.18,123.825c0.063,177.893 0.631,178.751 -2.747,182.284c-2.913,3.047 -5.358,5.604 -52.558,3.718c-15.764,-0.63 -15.172,-5.385 -14.677,-21.069c0.609,-19.309 -0.653,-19.298 -0.566,-241.479Z" style="fill:#062656;"/><path d="M2642.58,3217.691c40.822,1.672 86.943,12.95 85.844,102.343c-0.543,44.196 -24.684,86.639 -79.984,89.113c-30.615,1.369 -37.723,1.074 -38.975,-12.598c-1.187,-12.96 -0.218,-151.631 -0.126,-164.815c0.123,-17.613 13.609,-14.157 33.241,-14.043Z" style="fill:#fafafb;"/><path d="M3172.772,1879.94c4.251,0.006 43.623,0.057 53.135,0.303c14.164,0.366 14.827,6.587 14.878,19.958c0.018,4.711 0.216,56.578 0.162,58.886c-0.469,20.174 -9.554,16.279 -44.545,16.113c-34.151,-0.162 -44.44,3.645 -44.468,-16.204c-0.007,-4.707 -0.071,-49.83 0.177,-58.839c0.619,-22.475 8.049,-19.458 20.662,-20.216Z" style="fill:#888885;"/><path d="M3362.345,1959.039c-0.38,2.995 2.873,15.996 -12.833,16.37c-70.186,1.672 -71.636,-0.35 -73.99,-5.801c-2.234,-5.173 -0.798,-31.921 -1.038,-69.513c-0.1,-15.75 0.366,-19.962 16.105,-20.079c64.656,-0.482 65.591,-0.435 69.064,3.873c4.181,5.186 2.059,5.993 2.692,75.15Z" style="fill:#868583;"/><path d="M3151.993,1794.189c0.852,-34.772 -1.466,-41.531 14.903,-41.939c64.688,-1.609 65.221,-1.363 69.692,1.971c4.231,3.155 3.888,14.957 3.849,16.296c-1.931,66.467 4.231,73.029 -8.997,75.101c-3.964,0.621 -60.557,0.256 -64.463,0.119c-19.933,-0.701 -13.841,-13.411 -14.985,-51.549Z" style="fill:#888885;"/><path d="M3362.338,1811.779c-0.093,23.834 5.203,33.994 -18.697,34.046c-62.885,0.135 -67.787,1.152 -69.24,-10.704c-0.001,-0.008 -0.66,-70.925 0.585,-75.723c2.311,-8.906 8.921,-6.951 68.643,-7.657c0.186,-0.002 15.269,-2.061 17.853,6.952c0.874,3.048 0.755,14.397 0.856,53.086Z" style="fill:#858482;"/><path d="M1729.476,3217.19c0.988,0.161 20.675,0.284 32.977,16.089c8.549,10.984 19.996,63.689 -38.927,65.868c-28.642,1.059 -39.678,2.518 -39.938,-14.449c-0.951,-62.126 -1.228,-63.743 3.539,-66.038c7.016,-3.377 38.964,-1.653 42.349,-1.47Z" style="fill:#f8f9fa;"/><path d="M3002.738,3101.466c16.669,22.901 22.531,23.277 16.846,30.066c-1.64,1.959 -42.311,4.289 -50.756,-2.468c-11.026,-8.823 -14.008,-29.159 -32.176,-9.741c-13.545,14.477 -16.664,13.916 -46.835,13.963c-25.583,0.04 -2.247,-19.751 3.263,-27.368c17.786,-24.591 22.79,-34.29 38.093,-34.865c43.499,-1.635 47.43,1.691 50.528,4.311c0.041,0.034 0.006,-0.002 21.038,26.102Z" style="fill:#052252;"/><path d="M2703.313,1157.683c-0.114,-3.29 -1.411,-40.603 -1.406,-41.121c0.171,-15.433 8.109,-10.28 21.922,-3.362c13.192,6.606 16.734,6.515 15.073,21.225c-1.917,16.98 2.002,100.572 -2.482,105.494c-4.946,5.428 -21.43,3.52 -24.067,2.763c-9.38,-2.694 -7.193,-6.513 -9.041,-84.999Z" style="fill:#092048;"/><path d="M3961.058,3290.264c9.145,-31.298 8.723,-31.378 9.561,-34.083c2.725,-8.79 0.036,-13.452 9.247,-12.412c6.909,0.78 3.656,4.006 5.122,11.867c2.813,15.079 14.722,48.421 20.651,69.839c5.371,19.401 12.226,29.479 -7.988,29.365c-43.204,-0.244 -56.327,3.037 -53.102,-11.185c3.034,-13.377 15.081,-49.153 16.508,-53.39Z" style="fill:#f6f7f9;"/><path d="M3018.139,827.865c-0.022,-1.909 -0.233,-20.678 1.053,-23.839c3.833,-9.424 39.202,-4.18 40.609,-3.495c2.832,1.377 6.845,3.328 5.478,38.983c-0.45,11.727 -7.359,13.158 -33.879,11.832c-16.079,-0.804 -12.003,-7.395 -13.261,-23.48Z" style="fill:#f6f7f9;"/><path d="M2583.65,1354.002c16.006,0.155 15.976,-0.291 17.28,0.167c0.558,0.196 4.187,1.47 6.29,3.888c4.312,4.957 2.169,32.796 1.949,35.643c-1.054,13.685 -13.096,11.914 -31.455,11.999c-18.706,0.086 -16.713,-8.92 -16.252,-35.753c0.022,-1.28 -1.648,-13.653 10.621,-15.687c3.804,-0.631 7.761,0.375 11.566,-0.256Z" style="fill:#f7f7f9;"/><path d="M2480.073,1369.977c2.304,-9.954 -0.178,-12.915 9.591,-15.58c0.73,-0.199 28.66,-0.06 28.85,-0.028c8.8,1.494 11.236,8.194 9.831,38.827c-0.617,13.46 -12.242,12.254 -33.115,12.159c-19.255,-0.087 -15.161,-15.267 -15.156,-35.378Z" style="fill:#f2f3f6;"/><path d="M2162.667,1251.998c-0.386,2.407 4.663,21.357 -15.095,21.841c-23.621,0.579 -31.816,2.064 -32.199,-15.735c-0.61,-28.311 -2.684,-36.108 14.546,-36.334c25.353,-0.333 31.08,0.294 32.336,12.298c0.149,1.427 -0.075,1.421 0.412,17.93Z" style="fill:#f7f7f7;"/><path d="M3445.336,821.926c-0.493,14.187 1.194,18.956 -13.044,19.825c-28.769,1.757 -33.666,-0.995 -33.781,-13.972c-0.265,-30.118 -1.182,-36.948 15.769,-37.453c7.938,-0.236 24.447,-1.61 28.485,3.076c3.5,4.061 2.588,20.253 2.571,28.524Z" style="fill:#fbfbfb;"/><path d="M3331.942,843.108c-3.284,-0.785 -3.299,0.115 -6.655,-0.687c-0.475,-0.114 -4.499,-1.075 -5.676,-2.26c-2.025,-2.038 -5.4,-5.435 -3.366,-35.753c0.825,-12.304 4.558,-15.102 33.439,-13.751c14.831,0.694 13.232,11 12.874,37.182c-0.252,18.434 -13.873,15.076 -30.614,15.269Z" style="fill:#fafafa;"/><path d="M2114.832,1322.765c0.755,-19.721 0.079,-24.77 15.062,-24.921c15.193,-0.153 29.086,-2.067 32.531,7.91c0.758,2.195 0.839,2.431 -0.21,29.032c-0.499,12.636 -4.997,14.838 -32.428,13.736c-18.147,-0.729 -14.94,-7.626 -14.954,-25.756Z" style="fill:#f9f9f9;"/><path d="M2193.1,1252.042c-0.046,-7.598 -1.432,-23.479 3.43,-27.585c3.515,-2.969 14.871,-2.786 27.696,-2.578c12.853,0.208 16.245,3.274 15.104,36.045c-0.624,17.919 -9.772,16.546 -32.631,15.611c-16.122,-0.659 -13.434,-12.668 -13.599,-21.493Z" style="fill:#f9f9f9;"/><path d="M3726.623,1472.269c-1.419,-0.03 -15.4,-0.326 -17.592,-2.317c-7.01,-6.367 -3.971,-43.86 -3.072,-45.718c2.468,-5.1 18.966,-5.096 20.669,-5.095c17.12,0.004 23.134,-1.522 23.012,15.531c-0.161,22.367 1.91,36.196 -10.921,37.512c-4.011,0.411 -8.085,-0.325 -12.096,0.087Z" style="fill:#f7f7f7;"/><path d="M3951.081,1440.587c-0.216,15.622 2.686,30.778 -12.048,31.942c-32.676,2.58 -31.837,-5.687 -32.042,-14.096c-0.736,-30.164 -0.44,-35.966 7.27,-38.279c4.873,-1.462 27.78,-1.03 29.534,-0.295c9.445,3.958 7.261,16.644 7.286,20.729Z" style="fill:#f9f9f9;"/><path d="M4023.386,1452.409c-0.486,14.654 0.972,19.464 -13.701,20.154c-21.931,1.031 -30.671,1.699 -30.75,-14.325c-0.14,-28.34 -1.537,-37.341 12.551,-38.167c24.976,-1.464 27.751,1.451 29.382,3.163c3.443,3.615 2.528,22.719 2.518,29.175Z" style="fill:#fafafa;"/><path d="M2480.672,1446.44c0.121,-2.885 -2.084,-17.145 8.083,-19.629c2.478,-0.605 28.613,-0.578 30.584,-0.167c15.581,3.25 8.217,40.969 6.534,44.35c-1.972,3.959 -9.126,4.442 -30.632,4.35c-19.725,-0.084 -14.762,-17.16 -14.568,-28.904Z" style="fill:#f1f2f5;"/><path d="M2583.549,1426.588c16.94,0.397 16.882,0.034 18.291,0.429c2.937,0.823 10.341,2.898 7.25,37.425c-1.212,13.541 -14.681,11.342 -31.363,11.08c-17.934,-0.282 -16.87,-6.965 -16.103,-34.84c0.434,-15.76 6.134,-13.663 21.926,-14.093Z" style="fill:#f7f7f9;"/><path d="M3018.476,892.597c0.872,-14.458 0.631,-19.288 18.785,-19.414c7.113,-0.049 23.464,-2.784 27.579,8.096c0.471,1.246 0.67,30.583 -0.214,34.286c-2,8.381 -17.315,8.111 -33.29,7.462c-16.506,-0.67 -12.911,-15.65 -12.859,-30.43Z" style="fill:#f7f7f9;"/><path d="M2212.391,1348.309c-13.802,-1.033 -19.036,-0.4 -19.226,-19.592c-0.223,-22.511 -3.341,-31.058 19.263,-31.201c20.51,-0.13 27.62,-1.155 26.894,19.313c-0.599,16.874 1.145,28.871 -8.857,31.168c-0,0 -16.628,0.287 -18.074,0.312Z" style="fill:#f9f9f9;"/><path d="M2987.644,827.824c-0.033,1.351 -0.414,16.882 -0.414,16.882c-5.237,12.684 -37.315,5.835 -37.775,5.606c-7.434,-3.711 -6.106,-19.674 -5.843,-34.255c0.312,-17.27 5.642,-16.738 22.974,-16.511c13.011,0.17 19.652,-2.792 20.603,16.313c0.301,6.044 0.224,5.889 0.455,11.966Z" style="fill:#f6f6f9;"/><path d="M3398.993,886.805c0.997,-18.141 -2.955,-25.342 15.205,-26.034c25.596,-0.975 31.019,-0.435 31.581,14.065c1.235,31.837 -1.99,34.608 -13.744,35.132c-26.739,1.192 -31.787,-2.119 -33.013,-11.597c-0.494,-3.824 0.466,-7.743 -0.029,-11.566Z" style="fill:#fafaf9;"/><path d="M3049.625,1216.702c0.829,-9.059 -0.828,-9.712 2.97,-13.814c5.52,-5.962 33.293,-6.885 39.437,0.705c3.768,4.656 3.744,38.741 -1.022,43.364c-1.73,1.678 -4.027,3.907 -29.995,2.88c-14.308,-0.566 -11.39,-16.348 -11.39,-33.134Z" style="fill:#f9f9f9;"/><path d="M3072.622,1127.124c3.516,0.065 17.198,-1.904 21.002,7.605c0.382,0.954 1.12,30.646 -0.584,35.787c-4.156,12.542 -37.273,6.439 -38.638,5.811c-7.934,-3.652 -5.899,-41.515 -2.708,-45.472c3.731,-4.626 4.84,-2.576 20.927,-3.731Z" style="fill:#f9f9f9;"/><path d="M3979.037,1517.19c-0.003,-9.564 -1.603,-15.319 5.257,-20.073c1.895,-1.313 5.871,-2.371 25.069,-1.908c16.957,0.41 14.298,12.062 14.063,33.875c-0.175,16.224 -4.743,17.854 -31.621,16.951c-16.114,-0.541 -12.625,-18.766 -12.768,-28.846Z" style="fill:#fafafa;"/><path d="M3777.56,1446.408c0.122,-8.527 -4.135,-27.033 13.957,-26.81c1.45,0.018 15.842,0.195 18.122,0.562c10.972,1.765 10.886,7.728 10.421,38.069c-0.241,15.753 -9.58,14.747 -28.696,14.173c-17.981,-0.54 -13.562,-8.101 -13.804,-25.994Z" style="fill:#f9f9f9;"/><path d="M3926.943,1495.612c1.36,0.057 17,0.713 17,0.713c9.643,4.47 6.891,24.961 6.881,26.73c-0.008,1.39 -0.091,14.916 -1.172,17.336c-3.856,8.626 -27.044,5.978 -28.555,5.915c-17.457,-0.726 -14.449,-13.005 -14.152,-35.166c0.228,-17.053 7.267,-15.317 20,-15.527Z" style="fill:#f9f9f9;"/><path d="M2987.675,892.702c-0.001,19.311 3.518,29.965 -15.18,30.317c-14.614,0.275 -28.847,3.616 -29.4,-12.721c-1.027,-30.341 0.848,-36.111 11.501,-36.92c28.807,-2.187 30.986,4.03 31.846,6.484c0.341,0.974 0.091,0.949 1.233,12.839Z" style="fill:#f7f8f9;"/><path d="M3726.654,1494.548c14.75,0.943 15.562,-0.739 19.227,3.101c3.108,3.257 3.245,3.303 3.542,7.828c0.153,2.332 1.244,18.924 -0.173,29.213c-2.281,16.564 -38.836,8.133 -40.615,6.38c-2.037,-2.006 -5.251,-5.173 -3.748,-35.542c0.67,-13.543 15.967,-10.916 21.767,-10.98Z" style="fill:#f8f8f8;"/><path d="M3670.057,1045.801c0.136,-1.412 -2.248,-16.588 9.241,-18.789c0.924,-0.177 14.401,-0.409 17.904,-0.355c18.709,0.292 16.189,10.414 15.739,36.747c-0.283,16.585 -8.856,15.188 -27.623,14.586c-18.34,-0.588 -15.139,-10.534 -15.261,-32.189Z" style="fill:#f5f6f8;"/><path d="M3148.241,1145.97c0.612,-9.441 -2.153,-10.579 3.208,-15.625c4.646,-4.373 29.904,-3.169 33.16,-2.096c10.953,3.609 6.235,42.449 3.963,45.476c-3.042,4.052 -19.9,4.061 -21.663,4.062c-22.675,0.013 -18.559,-9.204 -18.667,-31.817Z" style="fill:#f9f9f9;"/><path d="M3820.195,1517.156c-0.201,15.592 4.355,26.277 -16.905,26.439c-17.433,0.133 -25.397,1.947 -25.808,-14.466c-0.603,-24.075 -2.358,-35.13 13.975,-35.462c12.269,-0.25 21.331,-0.282 25.784,3.932c4,3.786 2.214,4.617 2.955,19.557Z" style="fill:#fafafa;"/><path d="M3669.902,1128.262c-0.128,-18.074 -3.951,-29.103 15.492,-28.984c19.878,0.122 27.241,-2.536 27.424,17.315c0.173,18.779 3.24,33.186 -15.659,32.596c-21.057,-0.657 -24.643,-1.266 -27.056,-9.451c0,0 -0.184,-10.558 -0.2,-11.476Z" style="fill:#f4f5f7;"/><path d="M3626.456,1027.198c3.7,0.062 16.92,-2.109 20.715,7.573c0.577,1.471 0.757,31.223 -0.417,35.406c-3.851,13.728 -34.963,8.212 -37.904,5.058c-4.066,-4.36 -4.603,-40.826 1.277,-45.312c2.471,-1.885 15.007,-2.644 16.329,-2.724Z" style="fill:#f1f2f5;"/><path d="M3647.571,1122.377c-0.016,3.925 0.098,7.85 0.083,11.775c-0.053,13.139 -3.73,14.244 -27.066,14.996c-15.303,0.493 -14.278,-8.695 -14.804,-26.665c-0.689,-23.509 6.112,-22.874 20.713,-22.871c1.315,0 13.415,0.003 16.355,1.67c3.942,2.234 4.648,19.367 4.719,21.095Z" style="fill:#f0f1f3;"/><path d="M3172.757,1249.579c-3.795,-0.644 -7.754,0.63 -11.549,-0.014c-5.583,-0.947 -11.114,-2.688 -10.084,-38.692c0.413,-14.427 17.381,-12.543 27.58,-11.993c15.341,0.827 12.472,17.76 12.197,35.494c-0.283,18.297 -11.552,14.275 -18.144,15.204Z" style="fill:#f8f7f7;"/><path d="M3245.782,1157.838c-0.588,14.67 0.918,19.659 -13.861,20.086c-1.768,0.051 -18.631,0.539 -21.755,-3.953c-1.517,-2.182 -7.138,-41.505 4.019,-45.304c2.918,-0.993 27.173,-4.07 30.474,4.943c1.084,2.962 1.12,22.287 1.123,24.227Z" style="fill:#fdfdfd;"/><path d="M2405.514,980.994c-0.49,13.061 2.863,18.18 -10.142,19.338c-23.02,2.051 -25.885,-3.644 -26.191,-13.286c-0.216,-6.82 -2.09,-23.281 7.397,-26.155c6.112,-1.851 24.794,-1.453 27.573,3.839c1.211,2.306 1.349,14.957 1.364,16.263Z" style="fill:#f5f6f8;"/><path d="M2429.147,981.004c0.02,-0.958 0.249,-11.977 0.249,-11.977c2.694,-14.272 28.194,-8.691 31.427,-7.139c6.84,3.283 5.03,31.377 2.382,34.863c-3.054,4.022 -19.42,3.287 -21.128,3.211c-13.673,-0.614 -12.057,-5.225 -12.931,-18.958Z" style="fill:#f5f6f8;"/><path d="M2389.154,1055.713c-11.933,-0.308 -19.789,1.502 -19.866,-15.743c-0.071,-15.969 -1.86,-21.703 14.051,-21.968c17.037,-0.284 22.634,-0.964 22.394,16.027c-0.022,1.54 -0.221,15.594 -3.654,18.905c-3.769,3.635 -4.402,2.047 -12.924,2.779Z" style="fill:#f8f8fa;"/><path d="M2448.075,1055.601c-10.523,-0.449 -21.466,2.88 -18.825,-27.621c1.253,-14.472 33.911,-16.007 35.838,0.245c2.812,23.713 -4.096,25.931 -6.176,26.599c-0.828,0.266 -0.801,0.057 -10.837,0.777Z" style="fill:#fafafb;"/><path d="M3119.644,654.274c-15.704,-0.17 -20.502,0.744 -21.262,-15.011c-0.073,-1.514 -0.745,-15.446 2.219,-18.817c6.209,-7.062 29.113,-5.261 31.729,0.683c0.592,1.344 2.155,4.895 1.511,18.293c-0.803,16.719 -8.758,13.094 -14.198,14.852Z" style="fill:#f2f3f6;"/><path d="M3172.817,653.314c-6.937,-0.613 -17.608,2.97 -18.374,-13.986c-0.736,-16.305 -2.445,-25.848 24.21,-23.293c9.813,0.94 10.153,10.334 10.198,11.566c0.112,3.091 -0.28,16.862 -0.394,17.201c-3.16,9.395 -5.91,6.805 -15.64,8.512Z" style="fill:#f4f5f8;"/><path d="M2576.121,1146.008c1.742,-9.39 -0.88,-11.954 8.024,-15.41c1.684,-0.654 13.581,-0.915 17.473,3.318c0.194,0.211 9.831,24.953 -12.134,24.611c-14.891,-0.232 -12.771,-10.81 -13.363,-12.519Z" style="fill:#eef0f3;"/><path d="M2650.452,1146.063c-0.111,0.33 1.401,13.229 -13.85,12.535c-18.664,-0.849 -12.675,-25.583 -5.014,-27.606c1.95,-0.515 9.727,-0.641 10.55,-0.355c9.162,3.178 6.489,5.918 8.314,15.426Z" style="fill:#f0f2f4;"/><path d="M2603.488,1169.548c0.183,1.683 1.81,16.619 -7.406,19.828c-10.534,3.667 -18.913,-8.086 -17.843,-13.897c1.403,-7.618 3.631,-6.407 11.262,-6.857c1.119,-0.066 1.036,0.069 13.986,0.926Z" style="fill:#173a6b;"/><path d="M2625.319,1175.451c2.695,-1.654 2.732,-6.126 5.427,-7.78c1.69,-1.038 3.916,0.656 5.892,0.832c11.839,1.053 11.972,0.355 12.725,1.045c1.461,1.339 0.623,3.942 0.536,5.922c-0.09,2.057 -0.482,9.422 -7.529,11.427c-17.867,5.083 -16.809,-10.483 -17.052,-11.445Z" style="fill:#264470;"/></g></svg>